<?xml version="1.0" encoding="UTF-8" standalone="no"?>
<!-- Created with Inkscape (http://www.inkscape.org/) -->

<svg
   width="100"
   height="100"
   viewBox="0 0 26.458333 26.458333"
   version="1.1"
   id="svg1"
   xml:space="preserve"
   inkscape:version="1.3.2 (091e20e, 2023-11-25, custom)"
   sodipodi:docname="icone-logo.svg"
   xmlns:inkscape="http://www.inkscape.org/namespaces/inkscape"
   xmlns:sodipodi="http://sodipodi.sourceforge.net/DTD/sodipodi-0.dtd"
   xmlns="http://www.w3.org/2000/svg"
   xmlns:svg="http://www.w3.org/2000/svg"><sodipodi:namedview
     id="namedview1"
     pagecolor="#ffffff"
     bordercolor="#000000"
     borderopacity="0.25"
     inkscape:showpageshadow="2"
     inkscape:pageopacity="0.0"
     inkscape:pagecheckerboard="0"
     inkscape:deskcolor="#d1d1d1"
     inkscape:document-units="mm"
     inkscape:zoom="2.8284271"
     inkscape:cx="32.350135"
     inkscape:cy="31.289475"
     inkscape:window-width="1920"
     inkscape:window-height="1017"
     inkscape:window-x="-8"
     inkscape:window-y="-8"
     inkscape:window-maximized="1"
     inkscape:current-layer="layer1" /><defs
     id="defs1" /><g
     inkscape:label="Camada 1"
     inkscape:groupmode="layer"
     id="layer1"><path
       style="display:inline;fill:#b7392b;fill-opacity:1;stroke:#3a2722;stroke-width:0.148;stroke-linecap:round;stroke-linejoin:round;stroke-dasharray:none;stroke-opacity:1;paint-order:stroke fill markers"
       id="path4"
       sodipodi:type="arc"
       sodipodi:cx="17.386702"
       sodipodi:cy="15.191236"
       sodipodi:rx="9.4871845"
       sodipodi:ry="3.5242889"
       sodipodi:start="0"
       sodipodi:end="6.2680428"
       sodipodi:open="true"
       sodipodi:arc-type="arc"
       d="m 26.873886,15.191236 a 9.4871845,3.5242889 0 0 1 -9.45127,3.524263 9.4871845,3.5242889 0 0 1 -9.522827,-3.49758 9.4871845,3.5242889 0 0 1 9.37917,-3.550745 9.4871845,3.5242889 0 0 1 9.593839,3.470697"
       transform="rotate(25.099288)" /><path
       id="rect2"
       style="display:inline;fill:#64905b;fill-opacity:1;stroke:#392521;stroke-width:0.148;stroke-linecap:round;stroke-linejoin:round;stroke-dasharray:none;stroke-opacity:1;paint-order:stroke fill markers"
       d="m 3.9982145,10.0646 -3.03757541,6.484739 a 9.4820982,3.4658234 25.099288 0 0 -0.0395318,0.06016 9.4820982,3.4658234 25.099288 0 0 7.15994721,7.152058 9.4820982,3.4658234 25.099288 0 0 10.0243645,0.868517 l 0.02129,-0.04804 a 9.4820982,3.4658234 25.099288 0 0 0.01056,-0.04424 l 3.015526,-6.437666 z" /><path
       style="fill:#b53a2b;fill-opacity:1;stroke:#3d2f26;stroke-width:0.148;stroke-linecap:round;stroke-linejoin:round;stroke-dasharray:none;stroke-opacity:1;paint-order:stroke fill markers"
       id="path2"
       sodipodi:type="arc"
       sodipodi:cx="17.34412"
       sodipodi:cy="7.6630731"
       sodipodi:rx="9.617281"
       sodipodi:ry="4.9584599"
       sodipodi:start="0"
       sodipodi:end="6.2680428"
       sodipodi:open="true"
       sodipodi:arc-type="arc"
       d="M 26.961401,7.6630731 A 9.617281,4.9584599 0 0 1 17.380527,12.621497 9.617281,4.9584599 0 0 1 7.7271147,7.7006145 9.617281,4.9584599 0 0 1 17.2349,2.704933 9.617281,4.9584599 0 0 1 26.960298,7.5879924"
       transform="rotate(25.099288)" /><path
       style="fill:#e9b267;fill-opacity:1;stroke:#392521;stroke-width:0.148;stroke-linecap:round;stroke-linejoin:round;stroke-dasharray:none;stroke-opacity:1;paint-order:stroke fill markers"
       id="path2-5"
       sodipodi:type="arc"
       sodipodi:cx="17.332973"
       sodipodi:cy="7.2248263"
       sodipodi:rx="8.8623943"
       sodipodi:ry="4.0952306"
       sodipodi:start="0"
       sodipodi:end="6.2680428"
       sodipodi:open="true"
       sodipodi:arc-type="arc"
       d="M 26.195368,7.2248263 A 8.8623943,4.0952306 0 0 1 17.366523,11.320028 8.8623943,4.0952306 0 0 1 8.4708332,7.2558321 8.8623943,4.0952306 0 0 1 17.232326,3.1298599 8.8623943,4.0952306 0 0 1 26.194352,7.1628166"
       transform="rotate(25.099288)" /><path
       style="fill:#8b2616;fill-opacity:1;stroke:none;stroke-width:0.0960001;stroke-linecap:round;stroke-linejoin:round;stroke-dasharray:none;stroke-opacity:1;paint-order:stroke fill markers"
       id="path11"
       sodipodi:type="arc"
       sodipodi:cx="4.7762408"
       sodipodi:cy="13.313521"
       sodipodi:rx="0.1838553"
       sodipodi:ry="0.1838553"
       sodipodi:start="0"
       sodipodi:end="6.2680428"
       sodipodi:open="true"
       sodipodi:arc-type="arc"
       d="m 4.9600961,13.313521 a 0.1838553,0.1838553 0 0 1 -0.1831593,0.183854 0.1838553,0.1838553 0 0 1 -0.184546,-0.182462 0.1838553,0.1838553 0 0 1 0.181762,-0.185235 0.1838553,0.1838553 0 0 1 0.1859222,0.181059" /><path
       style="fill:#8b2616;fill-opacity:1;stroke:none;stroke-width:0.0960001;stroke-linecap:round;stroke-linejoin:round;stroke-dasharray:none;stroke-opacity:1;paint-order:stroke fill markers"
       id="path11-7"
       sodipodi:type="arc"
       sodipodi:cx="8.3244696"
       sodipodi:cy="16.781252"
       sodipodi:rx="0.1838553"
       sodipodi:ry="0.1838553"
       sodipodi:start="0"
       sodipodi:end="6.2680428"
       sodipodi:open="true"
       sodipodi:arc-type="arc"
       d="m 8.5083249,16.781252 a 0.1838553,0.1838553 0 0 1 -0.1831593,0.183854 0.1838553,0.1838553 0 0 1 -0.1845461,-0.182462 0.1838553,0.1838553 0 0 1 0.1817621,-0.185236 0.1838553,0.1838553 0 0 1 0.1859222,0.18106" /><path
       style="fill:#8b2616;fill-opacity:1;stroke:none;stroke-width:0.0960001;stroke-linecap:round;stroke-linejoin:round;stroke-dasharray:none;stroke-opacity:1;paint-order:stroke fill markers"
       id="path11-7-6"
       sodipodi:type="arc"
       sodipodi:cx="11.508468"
       sodipodi:cy="18.577568"
       sodipodi:rx="0.1838553"
       sodipodi:ry="0.1838553"
       sodipodi:start="0"
       sodipodi:end="6.2680428"
       sodipodi:open="true"
       sodipodi:arc-type="arc"
       d="m 11.692323,18.577568 a 0.1838553,0.1838553 0 0 1 -0.183159,0.183854 0.1838553,0.1838553 0 0 1 -0.184546,-0.182462 0.1838553,0.1838553 0 0 1 0.181762,-0.185235 0.1838553,0.1838553 0 0 1 0.185922,0.181059" /><path
       style="fill:#8b2616;fill-opacity:1;stroke:none;stroke-width:0.0960001;stroke-linecap:round;stroke-linejoin:round;stroke-dasharray:none;stroke-opacity:1;paint-order:stroke fill markers"
       id="path11-7-6-1"
       sodipodi:type="arc"
       sodipodi:cx="15.800209"
       sodipodi:cy="19.809748"
       sodipodi:rx="0.1838553"
       sodipodi:ry="0.1838553"
       sodipodi:start="0"
       sodipodi:end="6.2680428"
       sodipodi:open="true"
       sodipodi:arc-type="arc"
       d="m 15.984064,19.809748 a 0.1838553,0.1838553 0 0 1 -0.183159,0.183854 0.1838553,0.1838553 0 0 1 -0.184546,-0.182462 0.1838553,0.1838553 0 0 1 0.181762,-0.185236 0.1838553,0.1838553 0 0 1 0.185922,0.18106" /><path
       style="fill:#8b2616;fill-opacity:1;stroke:none;stroke-width:0.0960001;stroke-linecap:round;stroke-linejoin:round;stroke-dasharray:none;stroke-opacity:1;paint-order:stroke fill markers"
       id="path11-7-6-1-2-1"
       sodipodi:type="arc"
       sodipodi:cx="19.12608"
       sodipodi:cy="19.459045"
       sodipodi:rx="0.1838553"
       sodipodi:ry="0.1838553"
       sodipodi:start="0"
       sodipodi:end="6.2680428"
       sodipodi:open="true"
       sodipodi:arc-type="arc"
       d="m 19.309935,19.459045 a 0.1838553,0.1838553 0 0 1 -0.183159,0.183854 0.1838553,0.1838553 0 0 1 -0.184546,-0.182462 0.1838553,0.1838553 0 0 1 0.181762,-0.185235 0.1838553,0.1838553 0 0 1 0.185922,0.181059" /><path
       style="fill:#8b2616;fill-opacity:1;stroke:none;stroke-width:0.0960001;stroke-linecap:round;stroke-linejoin:round;stroke-dasharray:none;stroke-opacity:1;paint-order:stroke fill markers"
       id="path11-7-6-1-2-1-3"
       sodipodi:type="arc"
       sodipodi:cx="7.2497897"
       sodipodi:cy="23.724928"
       sodipodi:rx="0.1838553"
       sodipodi:ry="0.1838553"
       sodipodi:start="0"
       sodipodi:end="6.2680428"
       sodipodi:open="true"
       sodipodi:arc-type="arc"
       d="m 7.433645,23.724928 a 0.1838553,0.1838553 0 0 1 -0.1831593,0.183854 0.1838553,0.1838553 0 0 1 -0.184546,-0.182462 0.1838553,0.1838553 0 0 1 0.181762,-0.185236 0.1838553,0.1838553 0 0 1 0.1859222,0.18106" /><path
       style="fill:#8b2616;fill-opacity:1;stroke:none;stroke-width:0.0960001;stroke-linecap:round;stroke-linejoin:round;stroke-dasharray:none;stroke-opacity:1;paint-order:stroke fill markers"
       id="path11-7-6-1-2-1-3-5"
       sodipodi:type="arc"
       sodipodi:cx="3.4302711"
       sodipodi:cy="21.3442"
       sodipodi:rx="0.1838553"
       sodipodi:ry="0.1838553"
       sodipodi:start="0"
       sodipodi:end="6.2680428"
       sodipodi:open="true"
       sodipodi:arc-type="arc"
       d="M 3.6141264,21.3442 A 0.1838553,0.1838553 0 0 1 3.4309672,21.528054 0.1838553,0.1838553 0 0 1 3.2464211,21.345592 0.1838553,0.1838553 0 0 1 3.4281832,21.160357 0.1838553,0.1838553 0 0 1 3.6141054,21.341416" /><path
       style="fill:#8b2616;fill-opacity:1;stroke:none;stroke-width:0.0960001;stroke-linecap:round;stroke-linejoin:round;stroke-dasharray:none;stroke-opacity:1;paint-order:stroke fill markers"
       id="path11-7-6-1-2-1-3-5-1"
       sodipodi:type="arc"
       sodipodi:cx="11.792517"
       sodipodi:cy="25.493223"
       sodipodi:rx="0.1838553"
       sodipodi:ry="0.1838553"
       sodipodi:start="0"
       sodipodi:end="6.2680428"
       sodipodi:open="true"
       sodipodi:arc-type="arc"
       d="m 11.976372,25.493223 a 0.1838553,0.1838553 0 0 1 -0.183159,0.183854 0.1838553,0.1838553 0 0 1 -0.184546,-0.182462 0.1838553,0.1838553 0 0 1 0.181762,-0.185235 0.1838553,0.1838553 0 0 1 0.185922,0.181059" /><path
       style="fill:#8b2616;fill-opacity:1;stroke:none;stroke-width:0.0960001;stroke-linecap:round;stroke-linejoin:round;stroke-dasharray:none;stroke-opacity:1;paint-order:stroke fill markers"
       id="path11-7-6-1-2-1-3-5-1-3-8"
       sodipodi:type="arc"
       sodipodi:cx="16.091928"
       sodipodi:cy="25.972462"
       sodipodi:rx="0.1838553"
       sodipodi:ry="0.1838553"
       sodipodi:start="0"
       sodipodi:end="6.2680428"
       sodipodi:open="true"
       sodipodi:arc-type="arc"
       d="m 16.275784,25.972462 a 0.1838553,0.1838553 0 0 1 -0.18316,0.183854 0.1838553,0.1838553 0 0 1 -0.184546,-0.182462 0.1838553,0.1838553 0 0 1 0.181763,-0.185236 0.1838553,0.1838553 0 0 1 0.185922,0.18106" /><path
       style="fill:none;fill-opacity:1;stroke:#f7a453;stroke-width:0.122196;stroke-linecap:round;stroke-linejoin:round;stroke-dasharray:none;stroke-opacity:1;paint-order:stroke fill markers"
       d="m 0.7431421,17.129601 3.9812181,-3.791175 -1.2748699,7.949987 4.8654645,-4.463035 -1.0249058,6.820098 4.219341,-5.044775 0.29969,6.849562 3.99752,-5.5675 0.304239,6.024054 3.018075,-6.421269 -1.219195,5.581715"
       id="path6"
       sodipodi:nodetypes="ccccccccccc" /><path
       style="color:#000000;fill:#fbe7e0;fill-opacity:1;stroke:#392521;stroke-width:0.096;stroke-linecap:round;stroke-linejoin:round;stroke-dasharray:none;stroke-opacity:1;paint-order:stroke fill markers"
       d="M 25.972344,5.6055807 C 26.191121,5.4663754 26.255938,5.1763534 26.117238,4.9572585 25.978099,4.7376837 25.687211,4.6726339 25.467801,4.8120248 L 14.677005,12.161148 c -0.219389,0.139517 -0.25862,-0.07045 -0.118778,0.148737 0.139567,0.218588 -0.01111,0.250463 0.207466,0.111371 z"
       id="path8-3"
       sodipodi:nodetypes="ccccccc" /><path
       style="color:#000000;fill:#fbe7e0;fill-opacity:1;stroke:#392521;stroke-width:0.1;stroke-linecap:round;stroke-linejoin:round;stroke-dasharray:none;stroke-opacity:1;paint-order:stroke fill markers"
       d="M 8.3327981,0.55403822 C 8.2826954,0.29961326 8.0361112,0.13375713 7.7815771,0.18326511 7.5264339,0.23301637 7.3600407,0.48032315 7.410087,0.73540129 L 10.331199,13.460102 c 0.05017,0.25511 -0.159688,0.21528 0.09534,0.164744 0.254383,-0.0505 0.229314,0.101342 0.179152,-0.1528 z"
       id="path8"
       sodipodi:nodetypes="ccccccc" /><path
       style="fill:#b3392c;fill-opacity:1;stroke:#392521;stroke-width:0.096;stroke-linecap:round;stroke-linejoin:round;stroke-dasharray:none;stroke-opacity:1;paint-order:stroke fill markers"
       id="path10"
       sodipodi:type="arc"
       sodipodi:cx="15.363972"
       sodipodi:cy="7.9575963"
       sodipodi:rx="0.66077465"
       sodipodi:ry="0.66077465"
       sodipodi:start="0"
       sodipodi:end="6.2680428"
       sodipodi:open="true"
       sodipodi:arc-type="arc"
       d="M 16.024746,7.9575963 A 0.66077465,0.66077465 0 0 1 15.366473,8.6183662 0.66077465,0.66077465 0 0 1 14.703216,7.9625991 0.66077465,0.66077465 0 0 1 15.356468,7.2968643 0.66077465,0.66077465 0 0 1 16.024671,7.9475909"
       transform="rotate(25.099288)" /><path
       style="fill:#b3392c;fill-opacity:1;stroke:#392521;stroke-width:0.096;stroke-linecap:round;stroke-linejoin:round;stroke-dasharray:none;stroke-opacity:1;paint-order:stroke fill markers"
       id="path10-4"
       sodipodi:type="arc"
       sodipodi:cx="11.468152"
       sodipodi:cy="-15.294253"
       sodipodi:rx="0.66077465"
       sodipodi:ry="0.66077465"
       sodipodi:start="0"
       sodipodi:end="6.2680428"
       sodipodi:open="true"
       sodipodi:arc-type="arc"
       d="m 12.128927,-15.294253 a 0.66077465,0.66077465 0 0 1 -0.658274,0.66077 0.66077465,0.66077465 0 0 1 -0.663257,-0.655768 0.66077465,0.66077465 0 0 1 0.653252,-0.665734 0.66077465,0.66077465 0 0 1 0.668203,0.650726"
       transform="rotate(93.771238)" /></g></svg>
